<?xml version="1.0" encoding="utf-8"?>
<!-- Generator: Adobe Illustrator 20.1.0, SVG Export Plug-In . SVG Version: 6.00 Build 0)  -->
<svg version="1.1" id="Layer_1" xmlns="http://www.w3.org/2000/svg" xmlns:xlink="http://www.w3.org/1999/xlink" x="0px" y="0px"
	 viewBox="0 0 294.8 99.2" style="enable-background:new 0 0 294.8 99.2;" xml:space="preserve">
<style type="text/css">
	.st0{fill:#721511;}
</style>
<g>
	<path class="st0" d="M94.7,35.5c-8.4,1.4-14.1,4.5-18.5,9.3c-5.2,5.7-8.5,13.7-11.4,23.9c-2.9,10.2-6.2,18.5-11.8,24.6
		c-1.5,1.6-3.2,3.1-5.1,4.4C69.5,98,89.3,83.8,95.2,62.2C97.6,53.1,97.3,43.9,94.7,35.5"/>
	<path class="st0" d="M40.9,34.7c10.3-10.8,19.6-17.9,31.7-17.9c4.2,0,8.6,0.8,13.6,2.6c-1.3-1.6-2.6-3.1-4.1-4.5
		c-5.8-3.1-11-4.4-15.9-4.4c-9.5,0-18.3,5.1-28.6,13c-10.3,8-19.4,13.4-29.6,13.4c-1.7,0-3.4-0.2-5.2-0.5c-0.1,0.2-0.1,0.4-0.2,0.6
		c-1.2,4.5-1.8,9.1-1.7,13.6c3.4,0.9,6.5,1.4,9.5,1.4C21.8,52,30.6,45.4,40.9,34.7"/>
	<path class="st0" d="M49.4,51.8c9.2-15.5,18.3-25.4,34.9-25.4c2.1,0,4.4,0.2,6.8,0.5c-0.6-1.2-1.3-2.3-2-3.4
		c-5.5-2.2-10.4-3.2-14.8-3.2c-11.8,0-20.6,7.1-30.8,18.4C33.3,50.1,24,57.6,11.4,57.6c-3.1,0-6.5-0.5-10.1-1.5
		c1,7,3.5,13.7,7.3,19.6c2.6,0.4,5,0.6,7.2,0.6C31.8,76.3,40.2,67.2,49.4,51.8"/>
	<path class="st0" d="M60.7,66.1C64,56,67.5,47.8,73.3,42c4.9-5,11.4-8.1,20.5-9.3c-0.4-1-0.7-1.9-1.2-2.8c-2.1-0.3-4.2-0.4-6.1-0.4
		c-16.5,0-24.8,9.6-33.7,25.7C44,71.2,35.1,81.7,17.8,81.7h-0.1c-1.5,0-3.1-0.1-4.7-0.2c6,6.8,14,11.9,23.3,14.5
		c0.6,0.2,1.1,0.3,1.7,0.4c4.3-1.6,7.7-3.8,10.6-6.7C54,84.1,57.5,76.2,60.7,66.1"/>
	<path class="st0" d="M35.7,19.1C46,11.6,55,6.7,64.8,6.7c2.4,0,4.8,0.3,7.3,0.9c-3.3-1.8-6.8-3.3-10.6-4.3C38-3.1,13.9,9.1,4.7,31
		c1,0.1,2,0.2,2.9,0.2C16.8,31.1,25.5,26.5,35.7,19.1"/>
	<path class="st0" d="M151.4,26.7v7.7h-31.9c-2.2,0-3.8,0.8-4.9,2.3c-1,1.3-1.4,3.1-1.4,5.4c0,2.3,0.5,4.1,1.4,5.4
		c1.1,1.6,2.7,2.3,4.9,2.3h31.9v7.7h-33.1c-4.8,0-8.5-1.4-11.1-4.1c-2.5-2.7-3.8-6.5-3.8-11.4c0-4.9,1.3-8.7,3.8-11.4
		c2.5-2.7,6.2-4.1,11.1-4.1H151.4z"/>
	<path class="st0" d="M172.4,50.4h32.4v7.3h-33.6c-4.8,0-8.5-1.4-11.1-4.1c-2.5-2.7-3.8-6.5-3.8-11.4c0-4.9,1.3-8.7,3.8-11.4
		c2.5-2.7,6.2-4.1,11.1-4.1h33.6V34h-15.7h-16.7c-1.7,0-3.1,0.5-4.2,1.4c-0.5,0.4-1.2,1.5-2,3.1l-0.1,0.1h38.7v7h-38.7l0.1,0.2
		c0.7,1.6,1.4,2.6,2,3.1C169.3,49.9,170.7,50.4,172.4,50.4"/>
	<path class="st0" d="M267.1,37.7c0-2.2-1.1-3.2-3.2-3.2h-15.2v23.2h-9.3V34.5h-18.2v23.2h-9.3v-31h53.5c3.7,0,6.5,1,8.4,3
		c1.7,1.8,2.6,4,2.6,6.5v21.5h-9.3V37.7z"/>
	<path class="st0" d="M292.9,57.7h-9.3v-31h9.3V57.7z M292.9,23.6h-9.3v-7.4h9.3V23.6z"/>
	<path class="st0" d="M112.4,73.5c0.6-0.6,0.9-1.4,0.9-2.5c0-0.7-0.1-1.3-0.4-1.7c-0.5-0.9-1.4-1.4-2.6-1.4c-1.3,0-2.2,0.5-2.6,1.5
		c-0.3,0.5-0.4,1.2-0.4,2c0,0.7,0.1,1.2,0.4,1.7c0.5,0.9,1.4,1.3,2.6,1.3C111.2,74.3,111.9,74,112.4,73.5 M105.5,66.8h1.8v1.1
		c0.4-0.4,0.8-0.7,1.2-0.9c0.6-0.3,1.4-0.5,2.2-0.5c1.2,0,2.3,0.4,3.2,1.1c0.9,0.7,1.3,1.8,1.3,3.2c0,1.9-0.6,3.2-1.9,4
		c-0.8,0.5-1.7,0.8-2.8,0.8c-0.8,0-1.5-0.1-2.1-0.4c-0.3-0.2-0.7-0.4-1.1-0.8v4.3h-1.8V66.8z"/>
	<path class="st0" d="M117.4,66.7h1.7v1.5c0.1-0.3,0.5-0.6,1.1-1c0.6-0.4,1.2-0.6,1.9-0.6c0,0,0.1,0,0.2,0c0.1,0,0.2,0,0.4,0v1.5
		c-0.1,0-0.2,0-0.3,0c-0.1,0-0.2,0-0.3,0c-0.9,0-1.6,0.2-2.1,0.7s-0.7,1-0.7,1.6v4.9h-1.8V66.7z"/>
	<path class="st0" d="M131.1,73.2c0.4-0.7,0.7-1.5,0.7-2.4c0-0.8-0.2-1.4-0.5-1.9c-0.5-0.8-1.4-1.2-2.6-1.2c-1.1,0-1.9,0.3-2.4,1
		c-0.5,0.7-0.8,1.5-0.8,2.4c0,0.9,0.3,1.7,0.8,2.3c0.5,0.6,1.3,0.9,2.4,0.9C129.8,74.3,130.6,74,131.1,73.2 M132.2,67.6
		c1,0.7,1.5,1.8,1.5,3.2c0,1.4-0.4,2.5-1.3,3.4c-0.9,0.9-2.2,1.3-4,1.3c-1.5,0-2.7-0.4-3.6-1.2c-0.9-0.8-1.3-1.9-1.3-3.2
		c0-1.4,0.5-2.6,1.4-3.4c0.9-0.8,2.2-1.3,3.7-1.3C130.1,66.5,131.3,66.9,132.2,67.6"/>
	<path class="st0" d="M143.2,67.2c0.8,0.5,1.2,1.3,1.4,2.4h-1.8c-0.1-0.5-0.4-1-0.7-1.3c-0.4-0.3-1-0.5-1.9-0.5
		c-1.2,0-2,0.4-2.5,1.3c-0.3,0.6-0.5,1.3-0.5,2.1c0,0.9,0.2,1.6,0.7,2.1c0.5,0.6,1.2,0.9,2.2,0.9c0.8,0,1.4-0.2,1.8-0.5
		c0.4-0.4,0.8-0.9,0.9-1.5h1.8c-0.2,1.1-0.7,2-1.5,2.5c-0.8,0.5-1.9,0.8-3.1,0.8c-1.4,0-2.6-0.4-3.4-1.2c-0.9-0.8-1.3-1.8-1.3-3
		c0-1.5,0.5-2.7,1.4-3.5c0.9-0.8,2.1-1.2,3.6-1.2C141.4,66.5,142.4,66.7,143.2,67.2"/>
	<path class="st0" d="M153.9,70.3c-0.1-0.6-0.2-1.1-0.5-1.5c-0.5-0.7-1.3-1-2.5-1c-0.8,0-1.5,0.2-2.1,0.7c-0.6,0.5-0.9,1.1-0.9,1.8
		H153.9z M153.2,67c0.7,0.3,1.3,0.7,1.7,1.1c0.4,0.4,0.6,0.9,0.7,1.5c0.1,0.4,0.2,1,0.2,1.9h-8c0,0.9,0.3,1.6,0.8,2.1
		c0.5,0.5,1.2,0.8,2.3,0.8c1,0,1.7-0.2,2.3-0.7c0.3-0.3,0.5-0.6,0.7-1h1.8c0,0.3-0.2,0.7-0.5,1c-0.3,0.4-0.6,0.7-0.9,0.9
		c-0.6,0.4-1.2,0.7-2.1,0.9c-0.4,0.1-0.9,0.1-1.5,0.1c-1.4,0-2.5-0.4-3.4-1.2c-0.9-0.8-1.4-1.8-1.4-3.2c0-1.4,0.5-2.5,1.4-3.3
		c0.9-0.9,2.2-1.3,3.7-1.3C151.7,66.6,152.5,66.7,153.2,67"/>
	<path class="st0" d="M159.2,72.6c0.1,0.5,0.2,0.8,0.5,1.1c0.5,0.5,1.3,0.7,2.5,0.7c0.7,0,1.3-0.1,1.8-0.3c0.5-0.2,0.8-0.6,0.8-1.1
		c0-0.4-0.2-0.6-0.6-0.8c-0.3-0.1-0.8-0.3-1.6-0.4l-1.5-0.3c-0.9-0.2-1.6-0.4-2.1-0.6c-0.8-0.4-1.2-0.9-1.2-1.6c0-0.8,0.4-1.5,1.1-2
		c0.8-0.5,1.8-0.7,3.1-0.7c1.7,0,2.9,0.4,3.6,1.1c0.5,0.5,0.7,1,0.7,1.5h-1.7c0-0.3-0.2-0.6-0.5-0.9c-0.4-0.4-1.2-0.6-2.3-0.6
		c-0.7,0-1.3,0.1-1.6,0.3c-0.4,0.2-0.6,0.5-0.6,0.8c0,0.4,0.2,0.7,0.7,0.9c0.3,0.1,0.7,0.2,1.2,0.3l1.2,0.2c1.3,0.2,2.3,0.5,2.7,0.7
		c0.7,0.4,1.1,0.9,1.1,1.7c0,0.8-0.4,1.4-1.1,2c-0.7,0.6-1.9,0.8-3.4,0.8c-1.6,0-2.8-0.3-3.5-0.9c-0.7-0.6-1.1-1.3-1.1-2.1H159.2z"
		/>
	<path class="st0" d="M169.6,72.6c0.1,0.5,0.2,0.8,0.5,1.1c0.5,0.5,1.3,0.7,2.5,0.7c0.7,0,1.3-0.1,1.8-0.3c0.5-0.2,0.8-0.6,0.8-1.1
		c0-0.4-0.2-0.6-0.6-0.8c-0.3-0.1-0.8-0.3-1.6-0.4l-1.5-0.3c-0.9-0.2-1.6-0.4-2.1-0.6c-0.8-0.4-1.2-0.9-1.2-1.6c0-0.8,0.4-1.5,1.1-2
		c0.8-0.5,1.8-0.7,3.1-0.7c1.7,0,2.9,0.4,3.6,1.1c0.5,0.5,0.7,1,0.7,1.5h-1.7c0-0.3-0.2-0.6-0.5-0.9c-0.4-0.4-1.2-0.6-2.3-0.6
		c-0.7,0-1.3,0.1-1.6,0.3c-0.4,0.2-0.6,0.5-0.6,0.8c0,0.4,0.2,0.7,0.7,0.9c0.3,0.1,0.7,0.2,1.2,0.3l1.2,0.2c1.3,0.2,2.3,0.5,2.7,0.7
		c0.7,0.4,1.1,0.9,1.1,1.7c0,0.8-0.4,1.4-1.1,2c-0.7,0.6-1.9,0.8-3.4,0.8c-1.6,0-2.8-0.3-3.5-0.9c-0.7-0.6-1.1-1.3-1.1-2.1H169.6z"
		/>
	<path class="st0" d="M191.6,73.2c0.4-0.7,0.7-1.5,0.7-2.4c0-0.8-0.2-1.4-0.5-1.9c-0.5-0.8-1.4-1.2-2.6-1.2c-1.1,0-1.9,0.3-2.4,1
		c-0.5,0.7-0.8,1.5-0.8,2.4c0,0.9,0.3,1.7,0.8,2.3c0.5,0.6,1.3,0.9,2.4,0.9C190.4,74.3,191.2,74,191.6,73.2 M192.8,67.6
		c1,0.7,1.5,1.8,1.5,3.2c0,1.4-0.4,2.5-1.3,3.4c-0.9,0.9-2.2,1.3-4,1.3c-1.5,0-2.7-0.4-3.6-1.2c-0.9-0.8-1.3-1.9-1.3-3.2
		c0-1.4,0.5-2.6,1.4-3.4c0.9-0.8,2.2-1.3,3.7-1.3C190.6,66.5,191.8,66.9,192.8,67.6"/>
	<path class="st0" d="M203.3,73.5c0.6-0.6,0.9-1.4,0.9-2.5c0-0.7-0.1-1.3-0.4-1.7c-0.5-0.9-1.4-1.4-2.6-1.4c-1.3,0-2.2,0.5-2.6,1.5
		c-0.3,0.5-0.4,1.2-0.4,2c0,0.7,0.1,1.2,0.4,1.7c0.5,0.9,1.4,1.3,2.6,1.3C202,74.3,202.7,74,203.3,73.5 M196.3,66.8h1.8v1.1
		c0.4-0.4,0.8-0.7,1.2-0.9c0.6-0.3,1.4-0.5,2.2-0.5c1.2,0,2.3,0.4,3.2,1.1c0.9,0.7,1.3,1.8,1.3,3.2c0,1.9-0.6,3.2-1.9,4
		c-0.8,0.5-1.7,0.8-2.8,0.8c-0.8,0-1.5-0.1-2.1-0.4c-0.3-0.2-0.7-0.4-1.1-0.8v4.3h-1.8V66.8z"/>
	<path class="st0" d="M208.5,64.4h1.9v2.4h1.7v1.2h-1.7v5.6c0,0.3,0.1,0.5,0.4,0.6c0.1,0.1,0.4,0.1,0.7,0.1c0.1,0,0.2,0,0.3,0
		c0.1,0,0.2,0,0.4,0v1.1c-0.2,0-0.4,0.1-0.7,0.1c-0.2,0-0.5,0-0.7,0c-0.9,0-1.4-0.2-1.7-0.5c-0.3-0.3-0.5-0.8-0.5-1.3v-5.6H207v-1.2
		h1.5V64.4z"/>
	<path class="st0" d="M214,66.8h1.9v8.5H214V66.8z M214,63.6h1.9v1.6H214V63.6z"/>
	<path class="st0" d="M218.6,66.7h1.8V68c0.4-0.4,0.8-0.7,1.2-0.9c0.6-0.3,1.3-0.5,2.1-0.5c0.9,0,1.6,0.2,2.1,0.5
		c0.3,0.2,0.6,0.5,0.8,0.8c0.4-0.5,0.9-0.8,1.4-1c0.6-0.2,1.2-0.3,1.9-0.3c1.5,0,2.5,0.4,3,1.2c0.3,0.4,0.4,1,0.4,1.8v5.7h-1.9v-5.9
		c0-0.6-0.2-1-0.5-1.2c-0.4-0.2-0.8-0.3-1.3-0.3c-0.7,0-1.3,0.2-1.9,0.6c-0.5,0.4-0.8,1-0.8,1.9v4.9H225v-5.5c0-0.6-0.1-1-0.3-1.3
		c-0.3-0.4-0.8-0.6-1.6-0.6c-0.7,0-1.3,0.2-1.9,0.6s-0.9,1.2-0.9,2.3v4.5h-1.8V66.7z"/>
	<path class="st0" d="M236.1,66.8h1.9v8.5h-1.9V66.8z M236.1,63.6h1.9v1.6h-1.9V63.6z"/>
	<polygon class="st0" points="239.9,74.1 246.4,68 240.4,68 240.4,66.7 248.9,66.7 248.9,67.9 242.4,74 249.1,74 249.1,75.3 
		239.9,75.3 	"/>
	<path class="st0" d="M253.2,74c0.4,0.2,0.8,0.4,1.4,0.4c0.6,0,1.3-0.1,1.9-0.3c1-0.4,1.5-1,1.5-1.9v-1.2c-0.2,0.1-0.5,0.2-0.9,0.3
		c-0.4,0.1-0.7,0.1-1,0.2l-1.1,0.1c-0.7,0.1-1.2,0.2-1.5,0.3c-0.6,0.2-0.9,0.6-0.9,1.2C252.6,73.4,252.8,73.7,253.2,74 M257.1,70.1
		c0.4,0,0.7-0.2,0.8-0.4c0.1-0.1,0.1-0.3,0.1-0.6c0-0.5-0.2-0.8-0.7-1.1c-0.4-0.2-1.1-0.3-1.9-0.3c-1,0-1.6,0.2-2,0.6
		c-0.2,0.2-0.4,0.6-0.4,1h-1.7c0-1.1,0.5-1.8,1.3-2.2c0.8-0.4,1.8-0.6,2.9-0.6c1.3,0,2.3,0.2,3.1,0.6c0.8,0.4,1.2,1,1.2,1.8v4.9
		c0,0.1,0,0.3,0.1,0.4c0.1,0.1,0.2,0.1,0.5,0.1c0.1,0,0.2,0,0.3,0c0.1,0,0.2,0,0.3,0v1.1c-0.3,0.1-0.5,0.1-0.7,0.1
		c-0.1,0-0.4,0-0.6,0c-0.6,0-1.1-0.2-1.4-0.5c-0.2-0.2-0.3-0.4-0.3-0.8c-0.4,0.4-0.9,0.7-1.6,1c-0.7,0.3-1.5,0.4-2.3,0.4
		c-1,0-1.8-0.2-2.5-0.7c-0.6-0.5-1-1.1-1-1.8c0-0.8,0.3-1.4,1-1.8c0.6-0.4,1.5-0.7,2.5-0.8L257.1,70.1z"/>
	<path class="st0" d="M263.2,64.4h1.9v2.4h1.7v1.2h-1.7v5.6c0,0.3,0.1,0.5,0.4,0.6c0.1,0.1,0.4,0.1,0.7,0.1c0.1,0,0.2,0,0.3,0
		c0.1,0,0.2,0,0.4,0v1.1c-0.2,0-0.4,0.1-0.7,0.1c-0.2,0-0.5,0-0.7,0c-0.9,0-1.4-0.2-1.7-0.5c-0.3-0.3-0.5-0.8-0.5-1.3v-5.6h-1.5
		v-1.2h1.5V64.4z"/>
	<path class="st0" d="M268.7,66.8h1.9v8.5h-1.9V66.8z M268.7,63.6h1.9v1.6h-1.9V63.6z"/>
	<path class="st0" d="M280.1,73.2c0.4-0.7,0.7-1.5,0.7-2.4c0-0.8-0.2-1.4-0.5-1.9c-0.5-0.8-1.4-1.2-2.6-1.2c-1.1,0-1.9,0.3-2.4,1
		c-0.5,0.7-0.8,1.5-0.8,2.4c0,0.9,0.3,1.7,0.8,2.3c0.5,0.6,1.3,0.9,2.4,0.9C278.8,74.3,279.7,74,280.1,73.2 M281.3,67.6
		c1,0.7,1.5,1.8,1.5,3.2c0,1.4-0.4,2.5-1.3,3.4c-0.9,0.9-2.2,1.3-4,1.3c-1.5,0-2.7-0.4-3.6-1.2c-0.9-0.8-1.3-1.9-1.3-3.2
		c0-1.4,0.5-2.6,1.4-3.4c0.9-0.8,2.2-1.3,3.7-1.3C279.1,66.5,280.3,66.9,281.3,67.6"/>
	<path class="st0" d="M285,66.7h1.7V68c0.5-0.5,1.1-0.9,1.6-1.1c0.6-0.2,1.2-0.3,1.9-0.3c1.6,0,2.6,0.4,3.1,1.3
		c0.3,0.5,0.5,1.1,0.5,2v5.5H292v-5.4c0-0.5-0.1-0.9-0.3-1.3c-0.3-0.5-0.9-0.8-1.8-0.8c-0.4,0-0.8,0-1.1,0.1
		c-0.5,0.1-0.9,0.3-1.3,0.7c-0.3,0.3-0.5,0.6-0.6,0.9c-0.1,0.3-0.1,0.7-0.1,1.3v4.5H285V66.7z"/>
</g>
</svg>
